<?xml version="1.0" encoding="utf-8"?>
<!-- Generator: Adobe Illustrator 22.0.0, SVG Export Plug-In . SVG Version: 6.00 Build 0)  -->
<svg version="1.1" id="Layer_1" xmlns="http://www.w3.org/2000/svg" xmlns:xlink="http://www.w3.org/1999/xlink" x="0px" y="0px"
	 viewBox="0 0 368.7 368.7" style="enable-background:new 0 0 368.7 368.7;" xml:space="preserve">
<style type="text/css">
	.st0{fill:#52AFA5;}
	.st1{clip-path:url(#SVGID_4_);fill:#019CDE;}
	.st2{fill:#333333;}
	.st3{fill:#F0F7FB;}
	.st4{fill:#0075AA;}
	.st5{fill:#5B5B5B;}
	.st6{opacity:0.1;fill:#FFFFFF;}
	.st7{fill:#FFD87D;}
	.st8{fill:#EEAF22;}
	.st9{clip-path:url(#SVGID_10_);fill:#0075AA;}
	.st10{fill:#019CDE;}
	.st11{fill:#FADD5F;}
	.st12{fill:#009CE3;}
	.st13{fill:#DF5D67;}
</style>
<ellipse transform="matrix(0.7071 -0.7071 0.7071 0.7071 -76.369 184.3713)" class="st0" cx="184.4" cy="184.4" rx="184.4" ry="184.4"/>
<g>
	<g>
		<g>
			<defs>
				<path id="SVGID_1_" d="M296.1,248.3l-102.6,34.1c-3,1-6.2-0.6-7.2-3.6l-19.5-58.7c-1-3,0.6-6.2,3.6-7.2L273,178.8
					c3-1,6.2,0.6,7.2,3.6l19.5,58.7C300.7,244.1,299.1,247.3,296.1,248.3z"/>
			</defs>
			<clipPath id="SVGID_2_">
				<use xlink:href="#SVGID_1_"  style="overflow:visible;"/>
			</clipPath>
		</g>
		<g>
			<defs>
				<path id="SVGID_3_" d="M296.1,248.3l-102.6,34.1c-3,1-6.2-0.6-7.2-3.6l-19.5-58.7c-1-3,0.6-6.2,3.6-7.2L273,178.8
					c3-1,6.2,0.6,7.2,3.6l19.5,58.7C300.7,244.1,299.1,247.3,296.1,248.3z"/>
			</defs>
			<use xlink:href="#SVGID_3_"  style="overflow:visible;fill:#019CDE;"/>
			<clipPath id="SVGID_4_">
				<use xlink:href="#SVGID_3_"  style="overflow:visible;"/>
			</clipPath>
			<circle class="st1" cx="273.1" cy="217.4" r="59.9"/>
		</g>
		<g>
			<defs>
				<path id="SVGID_5_" d="M296.1,248.3l-102.6,34.1c-3,1-6.2-0.6-7.2-3.6l-19.5-58.7c-1-3,0.6-6.2,3.6-7.2L273,178.8
					c3-1,6.2,0.6,7.2,3.6l19.5,58.7C300.7,244.1,299.1,247.3,296.1,248.3z"/>
			</defs>
			<clipPath id="SVGID_6_">
				<use xlink:href="#SVGID_5_"  style="overflow:visible;"/>
			</clipPath>
		</g>
	</g>
	
		<rect x="166.6" y="203.3" transform="matrix(0.949 -0.3153 0.3153 0.949 -54.5923 82.0625)" class="st2" width="119.5" height="12.9"/>
	
		<rect x="178.4" y="218.7" transform="matrix(0.949 -0.3153 0.3153 0.949 -58.8734 84.2975)" class="st3" width="105.5" height="10.9"/>
	
		<rect x="184.3" y="242.7" transform="matrix(0.949 -0.3153 0.3153 0.949 -66.3943 80.4621)" class="st4" width="62.4" height="5.4"/>
	
		<rect x="183.6" y="230.1" transform="matrix(0.949 -0.3153 0.3153 0.949 -62.923 76.5409)" class="st5" width="43.1" height="5.4"/>
	
		<rect x="187.6" y="254.2" transform="matrix(0.949 -0.3153 0.3153 0.949 -70.3349 79.0395)" class="st4" width="43.1" height="5.4"/>
	<polygon class="st6" points="269.4,257.2 239.3,267.2 243.5,188.6 273.7,178.6 	"/>
</g>
<g>
	
		<ellipse transform="matrix(0.6681 -0.7441 0.7441 0.6681 -50.786 110.3423)" class="st7" cx="98.3" cy="112.1" rx="41.4" ry="41.4"/>
	
		<ellipse transform="matrix(0.8677 -0.4971 0.4971 0.8677 -42.7168 63.6827)" class="st8" cx="98.3" cy="112.1" rx="33.6" ry="33.6"/>
	<g>
		<path class="st7" d="M82.4,133.9l3.5-5.9c-3.4-2.1-6.3-5.2-7.5-7.9l3.7-3.1c1.3,2.7,3.7,5.6,7,7.5c4.2,2.4,8.4,1.7,10.4-1.7
			c1.9-3.2,0.8-6.6-2.6-10.9c-4.6-5.9-6.8-10.7-3.8-15.9c2.9-4.9,8.5-6.6,14.4-4.3l3.5-5.9l3.7,2.1l-3.3,5.7
			c3.5,2.2,5.3,4.5,6.5,6.5l-3.7,3c-0.8-1.4-2.5-4.1-6.2-6.3c-4.5-2.6-7.8-0.9-9.2,1.4c-1.8,3.1-0.5,5.9,3.4,11
			c4.6,6,5.9,10.9,2.8,16.1c-2.7,4.7-8.5,7.1-15.1,4.6l-3.6,6.1L82.4,133.9z"/>
	</g>
</g>
<g>
	
		<ellipse transform="matrix(0.965 -0.2621 0.2621 0.965 -29.5764 56.0278)" class="st7" cx="195.2" cy="138.9" rx="38.3" ry="38.3"/>
	
		<ellipse transform="matrix(0.6097 -0.7926 0.7926 0.6097 -33.8813 208.9589)" class="st8" cx="195.2" cy="138.9" rx="31.1" ry="31.1"/>
	<g>
		<path class="st7" d="M201.9,162.9l-2.3-5.9c-3.4,1.3-7.4,1.6-10,0.9l-0.1-4.5c2.7,0.6,6.2,0.5,9.4-0.8c4.2-1.6,6.1-5.1,4.8-8.5
			c-1.3-3.2-4.3-4.3-9.4-4.4c-6.9,0-11.7-1.3-13.7-6.4c-1.9-4.9,0.1-9.9,5.2-12.9l-2.3-5.9l3.6-1.4l2.2,5.7c3.6-1.3,6.3-1.3,8.4-0.9
			l0,4.4c-1.5-0.2-4.4-0.6-8.2,0.9c-4.5,1.8-5.2,5.1-4.3,7.5c1.2,3.1,4,3.7,9.9,3.9c7,0.1,11.3,2,13.3,7.2
			c1.8,4.6,0.3,10.2-5.4,13.6l2.4,6.1L201.9,162.9z"/>
	</g>
</g>
<g>
	<path class="st7" d="M290.7,66.7c6,15.5-1.6,33-17.2,39.1c-15.5,6-33-1.6-39.1-17.2c-6-15.5,1.6-33,17.2-39.1
		S284.7,51.1,290.7,66.7z"/>
	<path class="st8" d="M285.4,68.7c4.9,12.6-1.3,26.8-14,31.7c-12.6,4.9-26.8-1.3-31.7-14c-4.9-12.6,1.3-26.8,14-31.7
		C266.3,49.9,280.5,56.1,285.4,68.7z"/>
	<g>
		<path class="st7" d="M267.8,96.6l-1.8-4.7c-2.7,1-5.8,1.2-7.9,0.7l-0.1-3.5c2.1,0.5,4.9,0.4,7.4-0.6c3.3-1.3,4.8-4,3.7-6.7
			c-1-2.5-3.4-3.4-7.4-3.5c-5.4,0-9.2-1-10.8-5c-1.5-3.8,0.1-7.8,4.1-10.2l-1.8-4.7l2.9-1.1l1.7,4.5c2.8-1,5-1,6.7-0.7l0,3.5
			c-1.2-0.2-3.5-0.5-6.5,0.7c-3.6,1.4-4.1,4-3.4,5.9c0.9,2.4,3.1,2.9,7.8,3c5.5,0.1,8.9,1.6,10.5,5.7c1.4,3.7,0.2,8.1-4.3,10.7
			l1.9,4.8L267.8,96.6z"/>
	</g>
</g>
<g>
	<g>
		<g>
			<defs>
				<path id="SVGID_7_" d="M229.5,329.5l-122.3-23.3c-3.5-0.7-5.9-4.1-5.2-7.7l13.3-70c0.7-3.5,4.1-5.9,7.7-5.2l122.3,23.3
					c3.5,0.7,5.9,4.1,5.2,7.7l-13.3,70C236.5,327.8,233.1,330.2,229.5,329.5z"/>
			</defs>
			<clipPath id="SVGID_8_">
				<use xlink:href="#SVGID_7_"  style="overflow:visible;"/>
			</clipPath>
		</g>
		<g>
			<defs>
				<path id="SVGID_9_" d="M229.5,329.5l-122.3-23.3c-3.5-0.7-5.9-4.1-5.2-7.7l13.3-70c0.7-3.5,4.1-5.9,7.7-5.2l122.3,23.3
					c3.5,0.7,5.9,4.1,5.2,7.7l-13.3,70C236.5,327.8,233.1,330.2,229.5,329.5z"/>
			</defs>
			<use xlink:href="#SVGID_9_"  style="overflow:visible;fill:#0075AA;"/>
			<clipPath id="SVGID_10_">
				<use xlink:href="#SVGID_9_"  style="overflow:visible;"/>
			</clipPath>
			
				<ellipse transform="matrix(0.7071 -0.7071 0.7071 0.7071 -136.3107 241.8018)" class="st9" cx="223.7" cy="285.4" rx="69" ry="69"/>
		</g>
		<g>
			<defs>
				<path id="SVGID_11_" d="M229.5,329.5l-122.3-23.3c-3.5-0.7-5.9-4.1-5.2-7.7l13.3-70c0.7-3.5,4.1-5.9,7.7-5.2l122.3,23.3
					c3.5,0.7,5.9,4.1,5.2,7.7l-13.3,70C236.5,327.8,233.1,330.2,229.5,329.5z"/>
			</defs>
			<clipPath id="SVGID_12_">
				<use xlink:href="#SVGID_11_"  style="overflow:visible;"/>
			</clipPath>
		</g>
	</g>
	<polygon class="st6" points="197.7,323.4 161.7,316.6 210.1,239.9 246.1,246.8 	"/>
	
		<rect x="115.4" y="269.3" transform="matrix(0.9823 0.1872 -0.1872 0.9823 53.307 -19.3231)" class="st3" width="27.2" height="6.7"/>
	
		<rect x="192.4" y="295.2" transform="matrix(0.9823 0.1872 -0.1872 0.9823 59.3977 -32.0784)" class="st3" width="14.4" height="6.7"/>
	
		<rect x="173.6" y="291.6" transform="matrix(0.9823 0.1872 -0.1872 0.9823 58.3977 -28.6277)" class="st3" width="14.4" height="6.7"/>
	
		<rect x="145.5" y="275.1" transform="matrix(0.9823 0.1872 -0.1872 0.9823 54.9169 -24.8716)" class="st3" width="27.2" height="6.7"/>
	
		<rect x="207.9" y="286.9" transform="matrix(0.9823 0.1872 -0.1872 0.9823 58.2414 -36.3288)" class="st3" width="27.2" height="6.7"/>
	
		<rect x="175.7" y="280.8" transform="matrix(0.9823 0.1872 -0.1872 0.9823 56.5269 -30.4202)" class="st3" width="27.2" height="6.7"/>
	
		<rect x="180.3" y="251.2" transform="matrix(0.9823 0.1872 -0.1872 0.9823 51.3059 -34.9119)" class="st10" width="60.4" height="6.2"/>
	
		<rect x="110.6" y="295.4" transform="matrix(0.9823 0.1872 -0.1872 0.9823 58.2514 -20.0789)" class="st10" width="49.6" height="6.2"/>
	<path class="st11" d="M134.5,265.6l-10.5-2c-3.8-0.7-6.4-4.5-5.6-8.3l1-5.4c0.7-3.8,4.5-6.4,8.3-5.6l10.5,2
		c3.8,0.7,6.4,4.5,5.6,8.3l-1,5.4C142.1,263.8,138.3,266.3,134.5,265.6z"/>
	<g>
		
			<ellipse transform="matrix(0.827 -0.5623 0.5623 0.827 -139.383 180.5485)" class="st12" cx="223.6" cy="316.7" rx="6.4" ry="6.4"/>
		<path class="st13" d="M222.3,316.5c-0.7,3.5-4,5.8-7.5,5.1c-3.5-0.7-5.8-4-5.1-7.5c0.7-3.5,4-5.8,7.5-5.1
			C220.7,309.6,222.9,313,222.3,316.5z"/>
	</g>
</g>
<g>
</g>
<g>
</g>
<g>
</g>
<g>
</g>
<g>
</g>
<g>
</g>
<g>
</g>
<g>
</g>
<g>
</g>
<g>
</g>
<g>
</g>
</svg>
